# xmcd
# 
# Track frame offsets:
#     150
#     17682
#     34496
#     48317
#     65212
#     79749
#     92418
#     109065
#     125373
#     137575
#     152339
#     168312
# 
# Disc length: 2430
# 
# Revision: 0
# Processed by: cddbd v1.5.2PL0 Copyright (c) Steve Scherf et al.
# Submitted via: fre:ac v1.0.31
# 
DISCID=94097c0c
DTITLE=The Wolfe Brothers - Country Heart
DYEAR=2018
DGENRE=Country
TTITLE0=Ain't Seen It Yet
TTITLE1=Country Heart
TTITLE2=This Ride
TTITLE3=Hey Brother
TTITLE4=Starts With A Girl
TTITLE5=No Sad Song
TTITLE6=We Got Close
TTITLE7=Something Outta Nothing
TTITLE8=Storm Rollin In
TTITLE9=We Ain't Goin Nowhere
TTITLE10=We Got Wheels
TTITLE11=Tail Lights
EXTD=
EXTT0=
EXTT1=
EXTT2=
EXTT3=
EXTT4=
EXTT5=
EXTT6=
EXTT7=
EXTT8=
EXTT9=
EXTT10=
EXTT11=
PLAYORDER=
